<?xml version="1.0" encoding="UTF-8"?>
<svg width="161px" height="156px" viewBox="0 0 161 156" version="1.1" xmlns="http://www.w3.org/2000/svg" xmlns:xlink="http://www.w3.org/1999/xlink">
    <!-- Generator: Sketch 63.1 (92452) - https://sketch.com -->
    <title>cbb_knot</title>
    <desc>Created with Sketch.</desc>
    <g id="Page-1" stroke="none" stroke-width="1" fill="none" fill-rule="evenodd">
        <path d="M17.45,95.64 C16.2542455,98.0314262 15.2834015,100.528839 14.55,103.1 C1.45072487,92.059183 -3.38193149,74.0257727 2.44093377,57.9141344 C8.26379902,41.8024961 23.5088193,31.0253066 40.64,30.91 C44.0405625,31.0028455 47.4266284,31.3909717 50.76,32.07 C57.2171838,33.7023104 63.2295287,36.7528922 68.36,41 L68.36,41 L75.17,45.67 L75.17,45.67 L80.54,49.34 L86.77,53.58 L86.77,53.58 C92.61,57.65 99,62 105,66.06 L102.6,73.31 L80.27,58.07 L80.27,58.07 L73.5,53.44 L73.5,53.44 L61.57,45.29 C59.1127551,43.7005452 56.5576803,42.2676993 53.92,41 C51.6708012,40.0498378 49.3230974,39.3522343 46.92,38.92 C32.5266145,36.2853582 18.0924823,43.3175737 11.2958641,56.2758477 C4.49924597,69.2341217 6.91983709,85.1066441 17.27,95.45 L17.48,95.66 L17.48,95.66 M46.91,41.78 C44.4441741,41.2994173 41.9289297,41.1214361 39.42,41.25 C39.56,47.77 43.59,58.92 43.59,58.92 L46.82,69.33 L53.05,65 L49.57,54 C49.5672381,53.9600477 49.5672381,53.9199523 49.57,53.88 C47.9396295,50.0349506 47.0539529,45.9153665 46.96,41.74 M109.4,31.36 C107.370422,31.8692039 105.384243,32.537951 103.46,33.36 C101.94,34.03 92.94,40.09 81.9,47.68 L88.62,52.35 C98.06,45.86 105.37,40.86 106.51,40.2 C107.887185,39.5192232 109.340839,39.0055766 110.84,38.67 C110.657997,36.1970475 110.174411,33.7556116 109.4,31.4 M112.8,80.4 L122,86.62 C123.877929,87.9812131 125.680581,89.4433642 127.4,91 C129.605911,93.1905755 131.491215,95.6818698 133,98.4 C135.249299,97.2832409 137.351911,95.8926952 139.26,94.26 C136.083241,88.7661422 131.686842,84.0755091 126.41,80.55 C124.13,79.07 120.1,76.35 115.14,72.99 L112.8,80.4 Z M49.51,27.89 C52.8847969,19.8820817 59.2435287,13.5018314 67.24,10.1 C71.3524703,8.35944792 75.7743762,7.46826382 80.24,7.48 C93.6016612,7.494731 105.682406,15.4320474 111,27.69 C111.442734,28.6946673 111.829983,29.7228808 112.16,30.77 L112.16,30.77 C112.920662,33.1433607 113.407162,35.5959901 113.61,38.08 L113.61,38.08 C113.69,39.02 113.73,39.96 113.73,40.91 C113.729899,43.9518882 113.316107,46.9796326 112.5,49.91 C112.5,49.91 98.29,93.67 95.46,102.53 L103.7,102.53 C106.05,94.94 119.47,52.85 119.47,52.85 C120.263024,50.2429186 120.792344,47.5628167 121.05,44.85 C121.17,43.56 121.24,42.25 121.24,40.92 C121.24,39.84 121.24,38.76 121.11,37.7 C120.911089,35.1543908 120.472479,32.6332222 119.8,30.17 C119.44641,28.8593156 119.025858,27.5676204 118.54,26.3 C112.347403,10.1430491 96.663835,-0.374338621 79.3655074,0.0296181715 C62.0671799,0.433574964 46.8916518,11.6715955 41.46,28.1 C44.0309195,28.1238229 46.594522,28.3781751 49.12,28.86 C49.25,28.54 49.37,28.22 49.51,27.86 M95.28,128.53 C95.73,127.74 97.54,122.19 99.99,114.42 L91.67,114.52 C90.93,116.91 90.29,119.03 89.77,120.77 L89.77,120.77 C89.19,122.77 88.77,124.24 88.58,125.11 C88.21,126.17 87.81,127.2 87.43,128.11 C86.1545379,131.123934 84.4429035,133.93398 82.35,136.45 C84.1361522,138.20425 86.1311015,139.732368 88.29,141 C91.337849,137.279464 93.7073042,133.051679 95.29,128.51 M122.74,30.3 C123.387191,32.8242902 123.808848,35.4010853 124,38 C131.197322,38.9978473 137.870303,42.3238015 143,47.47 C149.280031,53.7342391 152.809447,62.2398544 152.809447,71.11 C152.809447,79.9801456 149.280031,88.4857609 143,94.75 C142.27,95.48 141.5,96.18 140.71,96.84 L140.71,96.84 C138.761831,98.4493588 136.634421,99.8284843 134.37,100.95 C134.37,100.95 133.06,101.63 132.37,101.95 C128.257672,103.692135 123.83612,104.586649 119.37,104.58 L105.56,104.71 L95.9,104.82 L89.39,104.82 L89.39,104.82 L68.06,105 L70.37,112.47 L92.37,112.25 L100.68,112.18 L119.25,112 C124.913802,112.008556 130.51689,110.83344 135.7,108.55 C138.322259,107.239361 140.869533,105.783776 143.33,104.19 L143.33,104.19 C157.166172,94.1466823 163.299876,76.559863 158.710517,60.0903256 C154.121157,43.6207882 139.776222,31.7404948 122.74,30.3 M72.11,144.75 C71.3,145.17 70.48,145.56 69.63,145.92 C59.3042633,150.28239 47.4794168,149.179313 38.1387072,142.982343 C28.7979976,136.785374 23.1848216,126.319427 23.19,115.11 C23.1901098,113.047275 23.3775462,110.988821 23.75,108.96 L23.75,108.96 C24.2208482,106.475064 24.9758042,104.052494 26,101.74 L26,101.74 C27.671943,97.9127619 30.0462478,94.4327094 33,91.48 C34.8636372,89.7694924 36.8234987,88.16688 38.87,86.68 L38.87,86.74 L49.87,79.13 L49.87,79.13 L56.14,74.78 L56.14,74.78 L78.27,59.44 L71.52,54.82 C65.44,59 59.27,63.33 53.74,67.19 L53.74,67.19 L48.86,70.61 L45.56,72.92 L34.13,80.92 L34.52,81.39 L34.11,81 C27.8631174,85.1102382 22.8592826,90.850643 19.64,97.6 L19.64,97.6 C18.5261632,99.9768887 17.6421407,102.454831 17,105 L17,105 C13.9020413,117.236934 16.6207698,130.218748 24.3685074,140.184312 C32.116245,150.149877 44.0270173,155.985327 56.65,156.000097 C64.1850756,156.016417 71.5765684,153.939183 78,150 C75.8701267,148.442182 73.8853887,146.695077 72.07,144.78 M137,111 C138.270042,122.7781 133.217567,134.349805 123.715864,141.424711 C114.214161,148.499616 101.679759,150.022984 90.76,145.43 C89.2328478,144.789934 87.7583155,144.030934 86.35,143.16 C84.2552327,141.77352 82.269454,140.229026 80.41,138.54 L80.13,138.26 C77.0872892,135.21957 74.6655781,131.615874 73,127.65 C72.77,127.11 72.55,126.55 72.35,125.99 L68.08,112.47 L68.08,112.47 L66.68,108 C66.68,108 65.68,105 65.68,105 L56.85,77 L50.57,81.36 L57.93,105.05 C57.93,105.05 62,118.27 62,118.28 L64.87,127.5 L64.87,127.5 C66.7022347,133.040409 69.6994018,138.124341 73.66,142.41 C75.7381137,144.65931 78.0589243,146.671573 80.58,148.41 L80.87,148.6 L81.26,148.86 L81.44,148.98 L81.95,149.3 L82.01,149.35 C82.43,149.61 82.85,149.86 83.28,150.1 L83.28,150.1 C95.9399056,157.402057 111.533629,157.395939 124.187801,150.083952 C136.841974,142.771965 144.634375,129.264829 144.630002,114.65 C144.630002,112.130883 144.398116,109.617112 143.94,107.14 C141.729472,108.64628 139.386481,109.948314 136.94,111.03 M28.54,102.89 C27.5509211,105.162997 26.8391315,107.546821 26.42,109.99 L26.42,110.08 C31.0487969,111.836655 35.9590834,112.734671 40.91,112.730018 L57.91,112.57 L55.5,105.09 L40.41,105.24 C36.3333591,105.187533 32.3005585,104.39114 28.51,102.89" id="cbb_knot" fill="#F57F20" fill-rule="nonzero"></path>
    </g>
</svg>